<?xml version="1.0" encoding="UTF-8"?>
<svg width="12px" height="23px" viewBox="0 0 12 23" version="1.1" xmlns="http://www.w3.org/2000/svg" xmlns:xlink="http://www.w3.org/1999/xlink">
    <!-- Generator: Sketch 51.2 (57519) - http://www.bohemiancoding.com/sketch -->
    <title>Path</title>
    <desc>Created with Sketch.</desc>
    <defs></defs>
    <g id="Page-1" stroke="none" stroke-width="1" fill="none" fill-rule="evenodd">
        <path d="M10.986,7.02 L10.984,7.018 C10.9645674,6.99861457 10.9427214,6.98180995 10.919,6.968 C10.156,6.392 3.057,1.039 2.101,0.762 C1.294,0.529 1.991,3.266 2.786,4.319 L7.663,9.085 L7.673,17.115 L6.027,18.716 L4.363,17.136 L4.349,9.912 L2.035,7.492 C2.035,7.492 0.843,6.074 0.843,8.114 L0.843,17.323 C0.843,17.323 0.746,18.066 1.683,19.066 L4.903,22.298 C4.903,22.298 5.916,23.593 7.151,22.298 C8.20586679,21.2067181 9.27698643,20.1312646 10.364,19.072 C10.364,19.072 11.177,18.42 11.177,17.376 C11.177,16.333 11.201,8.049 11.201,8.049 C11.201,8.049 11.256,7.285 10.986,7.02 Z" id="Path" fill="#000000" fill-rule="nonzero"></path>
    </g>
</svg>